<mxfile host="app.diagrams.net" modified="2023-10-20T10:19:23.179Z" agent="Mozilla/5.0 (X11; Linux x86_64) AppleWebKit/537.36 (KHTML, like Gecko) Chrome/118.0.0.0 Safari/537.36" etag="pOEuH72c3XOyxRkxt7Vo" version="22.0.5" type="device">
  <diagram name="Pagina-1" id="zV5fameIRv_1sKJ6muL1">
    <mxGraphModel dx="419" dy="218" grid="1" gridSize="10" guides="1" tooltips="1" connect="1" arrows="1" fold="1" page="1" pageScale="1" pageWidth="827" pageHeight="1169" math="0" shadow="0">
      <root>
        <mxCell id="0" />
        <mxCell id="1" parent="0" />
        <mxCell id="rJF4ex8fGmo-tv5KZ2PN-2" value="Volume/Copia" style="whiteSpace=wrap;html=1;align=center;" parent="1" vertex="1">
          <mxGeometry x="509" y="120" width="100" height="40" as="geometry" />
        </mxCell>
        <mxCell id="rJF4ex8fGmo-tv5KZ2PN-3" value="Edizione" style="whiteSpace=wrap;html=1;align=center;" parent="1" vertex="1">
          <mxGeometry x="634" y="340" width="100" height="40" as="geometry" />
        </mxCell>
        <mxCell id="VXULTdeV9HdvLmaTkZgw-38" style="edgeStyle=orthogonalEdgeStyle;rounded=0;orthogonalLoop=1;jettySize=auto;html=1;exitX=1;exitY=0.5;exitDx=0;exitDy=0;entryX=0.5;entryY=0;entryDx=0;entryDy=0;endArrow=none;endFill=0;" edge="1" parent="1" source="rJF4ex8fGmo-tv5KZ2PN-7" target="VXULTdeV9HdvLmaTkZgw-37">
          <mxGeometry relative="1" as="geometry" />
        </mxCell>
        <mxCell id="rJF4ex8fGmo-tv5KZ2PN-7" value="Autore" style="whiteSpace=wrap;html=1;align=center;" parent="1" vertex="1">
          <mxGeometry x="74" y="290" width="100" height="40" as="geometry" />
        </mxCell>
        <mxCell id="rJF4ex8fGmo-tv5KZ2PN-8" value="Socio" style="whiteSpace=wrap;html=1;align=center;" parent="1" vertex="1">
          <mxGeometry x="69" y="120" width="100" height="40" as="geometry" />
        </mxCell>
        <mxCell id="VXULTdeV9HdvLmaTkZgw-40" style="edgeStyle=orthogonalEdgeStyle;rounded=0;orthogonalLoop=1;jettySize=auto;html=1;exitX=1;exitY=0.5;exitDx=0;exitDy=0;entryX=0;entryY=0.5;entryDx=0;entryDy=0;endArrow=none;endFill=0;" edge="1" parent="1" source="rJF4ex8fGmo-tv5KZ2PN-9" target="VXULTdeV9HdvLmaTkZgw-19">
          <mxGeometry relative="1" as="geometry" />
        </mxCell>
        <mxCell id="rJF4ex8fGmo-tv5KZ2PN-9" value="Libro" style="whiteSpace=wrap;html=1;align=center;" parent="1" vertex="1">
          <mxGeometry x="305" y="330" width="100" height="40" as="geometry" />
        </mxCell>
        <mxCell id="rJF4ex8fGmo-tv5KZ2PN-11" value="prestito" style="shape=rhombus;perimeter=rhombusPerimeter;whiteSpace=wrap;html=1;align=center;" parent="1" vertex="1">
          <mxGeometry x="224" y="110" width="120" height="60" as="geometry" />
        </mxCell>
        <mxCell id="rJF4ex8fGmo-tv5KZ2PN-12" value="" style="endArrow=oval;html=1;rounded=0;endFill=1;entryX=0.525;entryY=1.05;entryDx=0;entryDy=0;entryPerimeter=0;exitX=0.25;exitY=0;exitDx=0;exitDy=0;" parent="1" source="rJF4ex8fGmo-tv5KZ2PN-8" target="rJF4ex8fGmo-tv5KZ2PN-13" edge="1">
          <mxGeometry width="50" height="50" relative="1" as="geometry">
            <mxPoint x="78.5" y="120" as="sourcePoint" />
            <mxPoint x="78.5" y="90" as="targetPoint" />
          </mxGeometry>
        </mxCell>
        <mxCell id="rJF4ex8fGmo-tv5KZ2PN-13" value="matricola" style="text;html=1;align=center;verticalAlign=middle;resizable=0;points=[];autosize=1;strokeColor=none;fillColor=none;fontSize=9;" parent="1" vertex="1">
          <mxGeometry x="49" y="80" width="60" height="20" as="geometry" />
        </mxCell>
        <mxCell id="rJF4ex8fGmo-tv5KZ2PN-15" value="" style="endArrow=oval;html=1;rounded=0;endFill=0;entryX=0.5;entryY=1.05;entryDx=0;entryDy=0;entryPerimeter=0;exitX=0.5;exitY=0;exitDx=0;exitDy=0;" parent="1" source="rJF4ex8fGmo-tv5KZ2PN-8" target="rJF4ex8fGmo-tv5KZ2PN-16" edge="1">
          <mxGeometry width="50" height="50" relative="1" as="geometry">
            <mxPoint x="88.5" y="130" as="sourcePoint" />
            <mxPoint x="88.5" y="100" as="targetPoint" />
          </mxGeometry>
        </mxCell>
        <mxCell id="rJF4ex8fGmo-tv5KZ2PN-16" value="cognome" style="text;html=1;align=center;verticalAlign=middle;resizable=0;points=[];autosize=1;strokeColor=none;fillColor=none;fontSize=9;" parent="1" vertex="1">
          <mxGeometry x="89" y="80" width="60" height="20" as="geometry" />
        </mxCell>
        <mxCell id="rJF4ex8fGmo-tv5KZ2PN-17" value="" style="endArrow=oval;html=1;rounded=0;endFill=0;entryX=0.525;entryY=1.05;entryDx=0;entryDy=0;entryPerimeter=0;exitX=0.86;exitY=0;exitDx=0;exitDy=0;exitPerimeter=0;" parent="1" source="rJF4ex8fGmo-tv5KZ2PN-8" target="rJF4ex8fGmo-tv5KZ2PN-18" edge="1">
          <mxGeometry width="50" height="50" relative="1" as="geometry">
            <mxPoint x="59" y="60" as="sourcePoint" />
            <mxPoint x="73.5" y="20" as="targetPoint" />
          </mxGeometry>
        </mxCell>
        <mxCell id="rJF4ex8fGmo-tv5KZ2PN-18" value="nome" style="text;html=1;align=center;verticalAlign=middle;resizable=0;points=[];autosize=1;strokeColor=none;fillColor=none;fontSize=9;" parent="1" vertex="1">
          <mxGeometry x="129" y="80" width="50" height="20" as="geometry" />
        </mxCell>
        <mxCell id="rJF4ex8fGmo-tv5KZ2PN-19" value="" style="endArrow=oval;html=1;rounded=0;endFill=0;entryX=0.5;entryY=0;entryDx=0;entryDy=0;entryPerimeter=0;exitX=0.25;exitY=1;exitDx=0;exitDy=0;" parent="1" source="rJF4ex8fGmo-tv5KZ2PN-8" target="rJF4ex8fGmo-tv5KZ2PN-20" edge="1">
          <mxGeometry width="50" height="50" relative="1" as="geometry">
            <mxPoint x="86" y="50" as="sourcePoint" />
            <mxPoint x="113.5" y="20" as="targetPoint" />
          </mxGeometry>
        </mxCell>
        <mxCell id="rJF4ex8fGmo-tv5KZ2PN-20" value="data di&lt;br&gt;nascita" style="text;html=1;align=center;verticalAlign=middle;resizable=0;points=[];autosize=1;strokeColor=none;fillColor=none;fontSize=9;" parent="1" vertex="1">
          <mxGeometry x="69" y="170" width="50" height="40" as="geometry" />
        </mxCell>
        <mxCell id="rJF4ex8fGmo-tv5KZ2PN-23" value="" style="endArrow=oval;html=1;rounded=0;endFill=0;exitX=0.81;exitY=0.988;exitDx=0;exitDy=0;exitPerimeter=0;" parent="1" source="rJF4ex8fGmo-tv5KZ2PN-8" target="rJF4ex8fGmo-tv5KZ2PN-24" edge="1">
          <mxGeometry width="50" height="50" relative="1" as="geometry">
            <mxPoint x="125" y="50" as="sourcePoint" />
            <mxPoint x="144" y="190" as="targetPoint" />
          </mxGeometry>
        </mxCell>
        <mxCell id="rJF4ex8fGmo-tv5KZ2PN-24" value="data&lt;br&gt;iscrizione" style="text;html=1;align=center;verticalAlign=middle;resizable=0;points=[];autosize=1;strokeColor=none;fillColor=none;fontSize=9;" parent="1" vertex="1">
          <mxGeometry x="119" y="170" width="60" height="40" as="geometry" />
        </mxCell>
        <mxCell id="rJF4ex8fGmo-tv5KZ2PN-25" value="" style="endArrow=oval;html=1;rounded=0;endFill=0;entryX=1;entryY=0.5;entryDx=0;entryDy=0;entryPerimeter=0;exitX=0;exitY=0.5;exitDx=0;exitDy=0;" parent="1" source="rJF4ex8fGmo-tv5KZ2PN-8" target="rJF4ex8fGmo-tv5KZ2PN-26" edge="1">
          <mxGeometry width="50" height="50" relative="1" as="geometry">
            <mxPoint x="166" y="50" as="sourcePoint" />
            <mxPoint x="193.5" y="20" as="targetPoint" />
          </mxGeometry>
        </mxCell>
        <mxCell id="rJF4ex8fGmo-tv5KZ2PN-26" value="# libri in&lt;br&gt;prestito" style="text;html=1;align=center;verticalAlign=middle;resizable=0;points=[];autosize=1;strokeColor=none;fillColor=none;fontSize=9;" parent="1" vertex="1">
          <mxGeometry x="9" y="120" width="50" height="40" as="geometry" />
        </mxCell>
        <mxCell id="rJF4ex8fGmo-tv5KZ2PN-28" value="" style="endArrow=oval;html=1;rounded=0;endFill=1;entryX=0.501;entryY=0.995;entryDx=0;entryDy=0;entryPerimeter=0;exitX=0.25;exitY=0;exitDx=0;exitDy=0;" parent="1" source="rJF4ex8fGmo-tv5KZ2PN-2" target="rJF4ex8fGmo-tv5KZ2PN-29" edge="1">
          <mxGeometry width="50" height="50" relative="1" as="geometry">
            <mxPoint x="531" y="129" as="sourcePoint" />
            <mxPoint x="528.5" y="90" as="targetPoint" />
          </mxGeometry>
        </mxCell>
        <mxCell id="rJF4ex8fGmo-tv5KZ2PN-29" value="codice&lt;br&gt;catalogazione" style="text;html=1;align=center;verticalAlign=middle;resizable=0;points=[];autosize=1;strokeColor=none;fillColor=none;fontSize=9;" parent="1" vertex="1">
          <mxGeometry x="494" y="70" width="80" height="40" as="geometry" />
        </mxCell>
        <mxCell id="rJF4ex8fGmo-tv5KZ2PN-33" value="" style="endArrow=oval;html=1;rounded=0;endFill=0;entryX=0.525;entryY=1.05;entryDx=0;entryDy=0;entryPerimeter=0;exitX=0;exitY=0;exitDx=0;exitDy=0;" parent="1" source="rJF4ex8fGmo-tv5KZ2PN-11" target="rJF4ex8fGmo-tv5KZ2PN-34" edge="1">
          <mxGeometry width="50" height="50" relative="1" as="geometry">
            <mxPoint x="264" y="120" as="sourcePoint" />
            <mxPoint x="258.5" y="90" as="targetPoint" />
          </mxGeometry>
        </mxCell>
        <mxCell id="rJF4ex8fGmo-tv5KZ2PN-34" value="data&lt;br&gt;prestito" style="text;html=1;align=center;verticalAlign=middle;resizable=0;points=[];autosize=1;strokeColor=none;fillColor=none;fontSize=9;" parent="1" vertex="1">
          <mxGeometry x="214" y="70" width="50" height="40" as="geometry" />
        </mxCell>
        <mxCell id="rJF4ex8fGmo-tv5KZ2PN-35" value="" style="endArrow=oval;html=1;rounded=0;endFill=0;entryX=0.525;entryY=1.05;entryDx=0;entryDy=0;entryPerimeter=0;exitX=1;exitY=0;exitDx=0;exitDy=0;" parent="1" source="rJF4ex8fGmo-tv5KZ2PN-11" target="rJF4ex8fGmo-tv5KZ2PN-36" edge="1">
          <mxGeometry width="50" height="50" relative="1" as="geometry">
            <mxPoint x="314" y="117.5" as="sourcePoint" />
            <mxPoint x="318.5" y="82.5" as="targetPoint" />
          </mxGeometry>
        </mxCell>
        <mxCell id="rJF4ex8fGmo-tv5KZ2PN-36" value="durata" style="text;html=1;align=center;verticalAlign=middle;resizable=0;points=[];autosize=1;strokeColor=none;fillColor=none;fontSize=9;" parent="1" vertex="1">
          <mxGeometry x="304" y="90" width="50" height="20" as="geometry" />
        </mxCell>
        <mxCell id="rJF4ex8fGmo-tv5KZ2PN-37" value="" style="endArrow=oval;html=1;rounded=0;endFill=0;entryX=0.5;entryY=-0.037;entryDx=0;entryDy=0;entryPerimeter=0;exitX=1;exitY=1;exitDx=0;exitDy=0;" parent="1" source="rJF4ex8fGmo-tv5KZ2PN-11" target="rJF4ex8fGmo-tv5KZ2PN-38" edge="1">
          <mxGeometry width="50" height="50" relative="1" as="geometry">
            <mxPoint x="348" y="215" as="sourcePoint" />
            <mxPoint x="352.5" y="180" as="targetPoint" />
          </mxGeometry>
        </mxCell>
        <mxCell id="rJF4ex8fGmo-tv5KZ2PN-38" value="data&lt;br&gt;restituzione" style="text;html=1;align=center;verticalAlign=middle;resizable=0;points=[];autosize=1;strokeColor=none;fillColor=none;fontSize=9;" parent="1" vertex="1">
          <mxGeometry x="284" y="170" width="70" height="40" as="geometry" />
        </mxCell>
        <mxCell id="rJF4ex8fGmo-tv5KZ2PN-43" value="" style="endArrow=oval;html=1;rounded=0;endFill=0;entryX=0.501;entryY=0.995;entryDx=0;entryDy=0;entryPerimeter=0;" parent="1" target="rJF4ex8fGmo-tv5KZ2PN-44" edge="1">
          <mxGeometry width="50" height="50" relative="1" as="geometry">
            <mxPoint x="124" y="290" as="sourcePoint" />
            <mxPoint x="118.5" y="260" as="targetPoint" />
          </mxGeometry>
        </mxCell>
        <mxCell id="rJF4ex8fGmo-tv5KZ2PN-44" value="nome" style="text;html=1;align=center;verticalAlign=middle;resizable=0;points=[];autosize=1;strokeColor=none;fillColor=none;fontSize=9;" parent="1" vertex="1">
          <mxGeometry x="99" y="250" width="50" height="20" as="geometry" />
        </mxCell>
        <mxCell id="rJF4ex8fGmo-tv5KZ2PN-45" value="" style="endArrow=oval;html=1;rounded=0;endFill=0;entryX=0.501;entryY=0.995;entryDx=0;entryDy=0;entryPerimeter=0;exitX=0.25;exitY=0;exitDx=0;exitDy=0;" parent="1" target="rJF4ex8fGmo-tv5KZ2PN-46" edge="1">
          <mxGeometry width="50" height="50" relative="1" as="geometry">
            <mxPoint x="164" y="290" as="sourcePoint" />
            <mxPoint x="158.5" y="260" as="targetPoint" />
          </mxGeometry>
        </mxCell>
        <mxCell id="rJF4ex8fGmo-tv5KZ2PN-46" value="cognome" style="text;html=1;align=center;verticalAlign=middle;resizable=0;points=[];autosize=1;strokeColor=none;fillColor=none;fontSize=9;" parent="1" vertex="1">
          <mxGeometry x="134" y="250" width="60" height="20" as="geometry" />
        </mxCell>
        <mxCell id="rJF4ex8fGmo-tv5KZ2PN-53" value="" style="endArrow=oval;html=1;rounded=0;endFill=0;entryX=0.501;entryY=0.995;entryDx=0;entryDy=0;entryPerimeter=0;exitX=0.25;exitY=0;exitDx=0;exitDy=0;" parent="1" target="rJF4ex8fGmo-tv5KZ2PN-54" edge="1">
          <mxGeometry width="50" height="50" relative="1" as="geometry">
            <mxPoint x="315" y="330" as="sourcePoint" />
            <mxPoint x="309.5" y="300" as="targetPoint" />
          </mxGeometry>
        </mxCell>
        <mxCell id="rJF4ex8fGmo-tv5KZ2PN-54" value="titolo" style="text;html=1;align=center;verticalAlign=middle;resizable=0;points=[];autosize=1;strokeColor=none;fillColor=none;fontSize=9;" parent="1" vertex="1">
          <mxGeometry x="295" y="290" width="40" height="20" as="geometry" />
        </mxCell>
        <mxCell id="rJF4ex8fGmo-tv5KZ2PN-57" value="" style="endArrow=oval;html=1;rounded=0;endFill=1;entryX=0.508;entryY=0.1;entryDx=0;entryDy=0;entryPerimeter=0;exitX=0;exitY=1;exitDx=0;exitDy=0;" parent="1" target="rJF4ex8fGmo-tv5KZ2PN-58" edge="1" source="rJF4ex8fGmo-tv5KZ2PN-3">
          <mxGeometry width="50" height="50" relative="1" as="geometry">
            <mxPoint x="649" y="440" as="sourcePoint" />
            <mxPoint x="643.5" y="410" as="targetPoint" />
          </mxGeometry>
        </mxCell>
        <mxCell id="rJF4ex8fGmo-tv5KZ2PN-58" value="ISBN" style="text;html=1;align=center;verticalAlign=middle;resizable=0;points=[];autosize=1;strokeColor=none;fillColor=none;fontSize=9;" parent="1" vertex="1">
          <mxGeometry x="609" y="400" width="40" height="20" as="geometry" />
        </mxCell>
        <mxCell id="rJF4ex8fGmo-tv5KZ2PN-60" value="" style="endArrow=oval;html=1;rounded=0;endFill=0;entryX=0.489;entryY=0.005;entryDx=0;entryDy=0;entryPerimeter=0;exitX=0.5;exitY=1;exitDx=0;exitDy=0;" parent="1" target="rJF4ex8fGmo-tv5KZ2PN-61" edge="1" source="rJF4ex8fGmo-tv5KZ2PN-3">
          <mxGeometry width="50" height="50" relative="1" as="geometry">
            <mxPoint x="683" y="440" as="sourcePoint" />
            <mxPoint x="677.5" y="410" as="targetPoint" />
          </mxGeometry>
        </mxCell>
        <mxCell id="rJF4ex8fGmo-tv5KZ2PN-61" value="editore" style="text;html=1;align=center;verticalAlign=middle;resizable=0;points=[];autosize=1;strokeColor=none;fillColor=none;fontSize=9;" parent="1" vertex="1">
          <mxGeometry x="658" y="400" width="50" height="20" as="geometry" />
        </mxCell>
        <mxCell id="rJF4ex8fGmo-tv5KZ2PN-62" value="" style="endArrow=oval;html=1;rounded=0;endFill=0;exitX=1;exitY=1;exitDx=0;exitDy=0;entryX=0.521;entryY=-0.01;entryDx=0;entryDy=0;entryPerimeter=0;" parent="1" target="rJF4ex8fGmo-tv5KZ2PN-63" edge="1" source="rJF4ex8fGmo-tv5KZ2PN-3">
          <mxGeometry width="50" height="50" relative="1" as="geometry">
            <mxPoint x="719" y="440" as="sourcePoint" />
            <mxPoint x="713.5" y="410" as="targetPoint" />
          </mxGeometry>
        </mxCell>
        <mxCell id="rJF4ex8fGmo-tv5KZ2PN-63" value="anno&lt;br&gt;stampa" style="text;html=1;align=center;verticalAlign=middle;resizable=0;points=[];autosize=1;strokeColor=none;fillColor=none;fontSize=9;" parent="1" vertex="1">
          <mxGeometry x="710" y="390" width="50" height="40" as="geometry" />
        </mxCell>
        <mxCell id="VXULTdeV9HdvLmaTkZgw-3" value="" style="endArrow=oval;html=1;rounded=0;endFill=0;entryX=0.501;entryY=0.995;entryDx=0;entryDy=0;entryPerimeter=0;exitX=0.25;exitY=0;exitDx=0;exitDy=0;" edge="1" parent="1" target="VXULTdeV9HdvLmaTkZgw-4">
          <mxGeometry width="50" height="50" relative="1" as="geometry">
            <mxPoint x="588" y="120" as="sourcePoint" />
            <mxPoint x="582.5" y="90" as="targetPoint" />
          </mxGeometry>
        </mxCell>
        <mxCell id="VXULTdeV9HdvLmaTkZgw-4" value="stato" style="text;html=1;align=center;verticalAlign=middle;resizable=0;points=[];autosize=1;strokeColor=none;fillColor=none;fontSize=9;" vertex="1" parent="1">
          <mxGeometry x="568" y="80" width="40" height="20" as="geometry" />
        </mxCell>
        <mxCell id="VXULTdeV9HdvLmaTkZgw-5" value="(0,1)" style="text;html=1;align=center;verticalAlign=middle;resizable=0;points=[];autosize=1;strokeColor=none;fillColor=none;fontSize=9;" vertex="1" parent="1">
          <mxGeometry x="309" y="150" width="40" height="20" as="geometry" />
        </mxCell>
        <mxCell id="VXULTdeV9HdvLmaTkZgw-6" value="" style="endArrow=none;html=1;rounded=0;exitX=1;exitY=0.5;exitDx=0;exitDy=0;entryX=0;entryY=0.5;entryDx=0;entryDy=0;" edge="1" parent="1" source="rJF4ex8fGmo-tv5KZ2PN-8" target="rJF4ex8fGmo-tv5KZ2PN-11">
          <mxGeometry width="50" height="50" relative="1" as="geometry">
            <mxPoint x="204" y="190" as="sourcePoint" />
            <mxPoint x="254" y="140" as="targetPoint" />
          </mxGeometry>
        </mxCell>
        <mxCell id="VXULTdeV9HdvLmaTkZgw-7" value="" style="endArrow=none;html=1;rounded=0;exitX=1;exitY=0.5;exitDx=0;exitDy=0;entryX=0;entryY=0.5;entryDx=0;entryDy=0;" edge="1" parent="1" source="rJF4ex8fGmo-tv5KZ2PN-11" target="rJF4ex8fGmo-tv5KZ2PN-2">
          <mxGeometry width="50" height="50" relative="1" as="geometry">
            <mxPoint x="380" y="139.76" as="sourcePoint" />
            <mxPoint x="440" y="139.76" as="targetPoint" />
          </mxGeometry>
        </mxCell>
        <mxCell id="VXULTdeV9HdvLmaTkZgw-9" value="" style="endArrow=oval;html=1;rounded=0;endFill=0;entryX=0.501;entryY=0.995;entryDx=0;entryDy=0;entryPerimeter=0;exitX=0.25;exitY=0;exitDx=0;exitDy=0;" edge="1" parent="1" target="VXULTdeV9HdvLmaTkZgw-10">
          <mxGeometry width="50" height="50" relative="1" as="geometry">
            <mxPoint x="345" y="330" as="sourcePoint" />
            <mxPoint x="339.5" y="300" as="targetPoint" />
          </mxGeometry>
        </mxCell>
        <mxCell id="VXULTdeV9HdvLmaTkZgw-10" value="# copie&lt;br style=&quot;font-size: 9px;&quot;&gt;dotazione" style="text;html=1;align=center;verticalAlign=middle;resizable=0;points=[];autosize=1;strokeColor=none;fillColor=none;fontSize=9;" vertex="1" parent="1">
          <mxGeometry x="315" y="280" width="60" height="40" as="geometry" />
        </mxCell>
        <mxCell id="VXULTdeV9HdvLmaTkZgw-13" value="" style="endArrow=oval;html=1;rounded=0;endFill=0;entryX=0.501;entryY=0.995;entryDx=0;entryDy=0;entryPerimeter=0;exitX=0.25;exitY=0;exitDx=0;exitDy=0;" edge="1" parent="1" target="VXULTdeV9HdvLmaTkZgw-14">
          <mxGeometry width="50" height="50" relative="1" as="geometry">
            <mxPoint x="390" y="330" as="sourcePoint" />
            <mxPoint x="384.5" y="300" as="targetPoint" />
          </mxGeometry>
        </mxCell>
        <mxCell id="VXULTdeV9HdvLmaTkZgw-14" value="# copie&lt;br&gt;disponibili" style="text;html=1;align=center;verticalAlign=middle;resizable=0;points=[];autosize=1;strokeColor=none;fillColor=none;fontSize=9;" vertex="1" parent="1">
          <mxGeometry x="360" y="280" width="60" height="40" as="geometry" />
        </mxCell>
        <mxCell id="VXULTdeV9HdvLmaTkZgw-15" value="" style="endArrow=oval;html=1;rounded=0;endFill=1;entryX=0.522;entryY=-0.024;entryDx=0;entryDy=0;entryPerimeter=0;exitX=0.25;exitY=1;exitDx=0;exitDy=0;" edge="1" parent="1" target="VXULTdeV9HdvLmaTkZgw-16">
          <mxGeometry width="50" height="50" relative="1" as="geometry">
            <mxPoint x="328.9999999999999" y="370" as="sourcePoint" />
            <mxPoint x="323.65" y="390.0999999999999" as="targetPoint" />
          </mxGeometry>
        </mxCell>
        <mxCell id="VXULTdeV9HdvLmaTkZgw-16" value="codice libro" style="text;html=1;align=center;verticalAlign=middle;resizable=0;points=[];autosize=1;strokeColor=none;fillColor=none;fontSize=9;" vertex="1" parent="1">
          <mxGeometry x="293" y="390" width="70" height="20" as="geometry" />
        </mxCell>
        <mxCell id="VXULTdeV9HdvLmaTkZgw-42" style="edgeStyle=orthogonalEdgeStyle;rounded=0;orthogonalLoop=1;jettySize=auto;html=1;exitX=0.5;exitY=0;exitDx=0;exitDy=0;entryX=0.25;entryY=1;entryDx=0;entryDy=0;endArrow=none;endFill=0;" edge="1" parent="1" source="VXULTdeV9HdvLmaTkZgw-17" target="rJF4ex8fGmo-tv5KZ2PN-2">
          <mxGeometry relative="1" as="geometry" />
        </mxCell>
        <mxCell id="VXULTdeV9HdvLmaTkZgw-17" value="dotazione" style="shape=rhombus;perimeter=rhombusPerimeter;whiteSpace=wrap;html=1;align=center;" vertex="1" parent="1">
          <mxGeometry x="426" y="210" width="120" height="60" as="geometry" />
        </mxCell>
        <mxCell id="VXULTdeV9HdvLmaTkZgw-43" style="edgeStyle=orthogonalEdgeStyle;rounded=0;orthogonalLoop=1;jettySize=auto;html=1;exitX=0.5;exitY=0;exitDx=0;exitDy=0;entryX=0.75;entryY=1;entryDx=0;entryDy=0;endArrow=none;endFill=0;" edge="1" parent="1" source="VXULTdeV9HdvLmaTkZgw-18" target="rJF4ex8fGmo-tv5KZ2PN-2">
          <mxGeometry relative="1" as="geometry" />
        </mxCell>
        <mxCell id="VXULTdeV9HdvLmaTkZgw-46" style="edgeStyle=orthogonalEdgeStyle;rounded=0;orthogonalLoop=1;jettySize=auto;html=1;exitX=0.5;exitY=1;exitDx=0;exitDy=0;entryX=0.5;entryY=0;entryDx=0;entryDy=0;endArrow=none;endFill=0;" edge="1" parent="1" source="VXULTdeV9HdvLmaTkZgw-18" target="rJF4ex8fGmo-tv5KZ2PN-3">
          <mxGeometry relative="1" as="geometry" />
        </mxCell>
        <mxCell id="VXULTdeV9HdvLmaTkZgw-18" value="dati&lt;br&gt;edizione" style="shape=rhombus;perimeter=rhombusPerimeter;whiteSpace=wrap;html=1;align=center;" vertex="1" parent="1">
          <mxGeometry x="624" y="210" width="120" height="60" as="geometry" />
        </mxCell>
        <mxCell id="VXULTdeV9HdvLmaTkZgw-41" style="edgeStyle=orthogonalEdgeStyle;rounded=0;orthogonalLoop=1;jettySize=auto;html=1;exitX=1;exitY=0.5;exitDx=0;exitDy=0;entryX=0;entryY=0.5;entryDx=0;entryDy=0;endArrow=none;endFill=0;" edge="1" parent="1" source="VXULTdeV9HdvLmaTkZgw-19" target="rJF4ex8fGmo-tv5KZ2PN-3">
          <mxGeometry relative="1" as="geometry" />
        </mxCell>
        <mxCell id="VXULTdeV9HdvLmaTkZgw-19" value="produzione&lt;br&gt;editoriale" style="shape=rhombus;perimeter=rhombusPerimeter;whiteSpace=wrap;html=1;align=center;" vertex="1" parent="1">
          <mxGeometry x="474" y="320" width="120" height="60" as="geometry" />
        </mxCell>
        <mxCell id="VXULTdeV9HdvLmaTkZgw-20" value="" style="endArrow=oval;html=1;rounded=0;endFill=0;entryX=0.501;entryY=0.995;entryDx=0;entryDy=0;entryPerimeter=0;" edge="1" parent="1" target="VXULTdeV9HdvLmaTkZgw-21">
          <mxGeometry width="50" height="50" relative="1" as="geometry">
            <mxPoint x="93" y="290" as="sourcePoint" />
            <mxPoint x="87.5" y="260" as="targetPoint" />
          </mxGeometry>
        </mxCell>
        <mxCell id="VXULTdeV9HdvLmaTkZgw-21" value="data di&lt;br&gt;nascita" style="text;html=1;align=center;verticalAlign=middle;resizable=0;points=[];autosize=1;strokeColor=none;fillColor=none;fontSize=9;" vertex="1" parent="1">
          <mxGeometry x="68" y="240" width="50" height="40" as="geometry" />
        </mxCell>
        <mxCell id="VXULTdeV9HdvLmaTkZgw-22" value="" style="endArrow=oval;html=1;rounded=0;endFill=0;entryX=0.501;entryY=0.995;entryDx=0;entryDy=0;entryPerimeter=0;exitX=0;exitY=0;exitDx=0;exitDy=0;" edge="1" parent="1" target="VXULTdeV9HdvLmaTkZgw-23" source="rJF4ex8fGmo-tv5KZ2PN-7">
          <mxGeometry width="50" height="50" relative="1" as="geometry">
            <mxPoint x="99" y="390" as="sourcePoint" />
            <mxPoint x="93.5" y="360" as="targetPoint" />
          </mxGeometry>
        </mxCell>
        <mxCell id="VXULTdeV9HdvLmaTkZgw-23" value="nazionalità" style="text;html=1;align=center;verticalAlign=middle;resizable=0;points=[];autosize=1;strokeColor=none;fillColor=none;fontSize=9;" vertex="1" parent="1">
          <mxGeometry x="19" y="260" width="70" height="20" as="geometry" />
        </mxCell>
        <mxCell id="VXULTdeV9HdvLmaTkZgw-24" value="" style="endArrow=oval;html=1;rounded=0;endFill=0;entryX=0.501;entryY=0.995;entryDx=0;entryDy=0;entryPerimeter=0;exitX=0;exitY=0.25;exitDx=0;exitDy=0;" edge="1" parent="1" target="VXULTdeV9HdvLmaTkZgw-25" source="rJF4ex8fGmo-tv5KZ2PN-7">
          <mxGeometry width="50" height="50" relative="1" as="geometry">
            <mxPoint x="169" y="370" as="sourcePoint" />
            <mxPoint x="153.5" y="360" as="targetPoint" />
          </mxGeometry>
        </mxCell>
        <mxCell id="VXULTdeV9HdvLmaTkZgw-25" value="epoca" style="text;html=1;align=center;verticalAlign=middle;resizable=0;points=[];autosize=1;strokeColor=none;fillColor=none;fontSize=9;" vertex="1" parent="1">
          <mxGeometry x="9" y="280" width="50" height="20" as="geometry" />
        </mxCell>
        <mxCell id="VXULTdeV9HdvLmaTkZgw-26" value="" style="endArrow=oval;html=1;rounded=0;endFill=0;entryX=0.501;entryY=0.995;entryDx=0;entryDy=0;entryPerimeter=0;exitX=0;exitY=0.5;exitDx=0;exitDy=0;" edge="1" parent="1" target="VXULTdeV9HdvLmaTkZgw-27" source="rJF4ex8fGmo-tv5KZ2PN-7">
          <mxGeometry width="50" height="50" relative="1" as="geometry">
            <mxPoint x="50" y="480" as="sourcePoint" />
            <mxPoint x="44.5" y="450" as="targetPoint" />
          </mxGeometry>
        </mxCell>
        <mxCell id="VXULTdeV9HdvLmaTkZgw-27" value="genere" style="text;html=1;align=center;verticalAlign=middle;resizable=0;points=[];autosize=1;strokeColor=none;fillColor=none;fontSize=9;" vertex="1" parent="1">
          <mxGeometry x="9" y="300" width="50" height="20" as="geometry" />
        </mxCell>
        <mxCell id="VXULTdeV9HdvLmaTkZgw-28" value="" style="endArrow=oval;html=1;rounded=0;endFill=0;entryX=0.539;entryY=0.043;entryDx=0;entryDy=0;entryPerimeter=0;exitX=0.25;exitY=1;exitDx=0;exitDy=0;" edge="1" parent="1" target="VXULTdeV9HdvLmaTkZgw-29" source="rJF4ex8fGmo-tv5KZ2PN-7">
          <mxGeometry width="50" height="50" relative="1" as="geometry">
            <mxPoint x="110" y="480" as="sourcePoint" />
            <mxPoint x="104.5" y="450" as="targetPoint" />
          </mxGeometry>
        </mxCell>
        <mxCell id="VXULTdeV9HdvLmaTkZgw-29" value="data morte" style="text;html=1;align=center;verticalAlign=middle;resizable=0;points=[];autosize=1;strokeColor=none;fillColor=none;fontSize=9;" vertex="1" parent="1">
          <mxGeometry x="44" y="340" width="70" height="20" as="geometry" />
        </mxCell>
        <mxCell id="VXULTdeV9HdvLmaTkZgw-32" value="" style="endArrow=oval;html=1;rounded=0;endFill=1;entryX=0.495;entryY=0.005;entryDx=0;entryDy=0;entryPerimeter=0;exitX=0.75;exitY=1;exitDx=0;exitDy=0;" edge="1" parent="1" target="VXULTdeV9HdvLmaTkZgw-33" source="rJF4ex8fGmo-tv5KZ2PN-7">
          <mxGeometry width="50" height="50" relative="1" as="geometry">
            <mxPoint x="164" y="330" as="sourcePoint" />
            <mxPoint x="178.5" y="350" as="targetPoint" />
          </mxGeometry>
        </mxCell>
        <mxCell id="VXULTdeV9HdvLmaTkZgw-33" value="codice autore" style="text;html=1;align=center;verticalAlign=middle;resizable=0;points=[];autosize=1;strokeColor=none;fillColor=none;fontSize=9;" vertex="1" parent="1">
          <mxGeometry x="118" y="340" width="80" height="20" as="geometry" />
        </mxCell>
        <mxCell id="VXULTdeV9HdvLmaTkZgw-34" value="(0,1)" style="text;html=1;align=center;verticalAlign=middle;resizable=0;points=[];autosize=1;strokeColor=none;fillColor=none;fontSize=9;" vertex="1" parent="1">
          <mxGeometry x="79" y="330" width="40" height="20" as="geometry" />
        </mxCell>
        <mxCell id="VXULTdeV9HdvLmaTkZgw-35" value="" style="endArrow=none;html=1;rounded=0;entryX=0;entryY=0.5;entryDx=0;entryDy=0;exitX=1;exitY=0;exitDx=0;exitDy=0;" edge="1" parent="1" source="rJF4ex8fGmo-tv5KZ2PN-9" target="VXULTdeV9HdvLmaTkZgw-17">
          <mxGeometry width="50" height="50" relative="1" as="geometry">
            <mxPoint x="526" y="280" as="sourcePoint" />
            <mxPoint x="576" y="230" as="targetPoint" />
            <Array as="points">
              <mxPoint x="426" y="330" />
            </Array>
          </mxGeometry>
        </mxCell>
        <mxCell id="VXULTdeV9HdvLmaTkZgw-36" value="(1,n)" style="text;html=1;align=center;verticalAlign=middle;resizable=0;points=[];autosize=1;strokeColor=none;fillColor=none;fontSize=9;" vertex="1" parent="1">
          <mxGeometry x="44" y="310" width="40" height="20" as="geometry" />
        </mxCell>
        <mxCell id="VXULTdeV9HdvLmaTkZgw-39" style="edgeStyle=orthogonalEdgeStyle;rounded=0;orthogonalLoop=1;jettySize=auto;html=1;exitX=1;exitY=0.5;exitDx=0;exitDy=0;entryX=0;entryY=0.5;entryDx=0;entryDy=0;endArrow=none;endFill=0;" edge="1" parent="1" source="VXULTdeV9HdvLmaTkZgw-37" target="rJF4ex8fGmo-tv5KZ2PN-9">
          <mxGeometry relative="1" as="geometry" />
        </mxCell>
        <mxCell id="VXULTdeV9HdvLmaTkZgw-37" value="scrittura" style="shape=rhombus;perimeter=rhombusPerimeter;whiteSpace=wrap;html=1;align=center;" vertex="1" parent="1">
          <mxGeometry x="144" y="390" width="120" height="60" as="geometry" />
        </mxCell>
        <mxCell id="VXULTdeV9HdvLmaTkZgw-47" value="(0,n)" style="text;html=1;align=center;verticalAlign=middle;resizable=0;points=[];autosize=1;strokeColor=none;fillColor=none;fontSize=9;fontColor=#FF0000;" vertex="1" parent="1">
          <mxGeometry x="161" y="122" width="40" height="20" as="geometry" />
        </mxCell>
        <mxCell id="VXULTdeV9HdvLmaTkZgw-48" value="M" style="text;html=1;align=center;verticalAlign=middle;resizable=0;points=[];autosize=1;strokeColor=none;fillColor=none;fontSize=9;fontColor=#FF0000;" vertex="1" parent="1">
          <mxGeometry x="219" y="142" width="30" height="20" as="geometry" />
        </mxCell>
        <mxCell id="VXULTdeV9HdvLmaTkZgw-49" value="N" style="text;html=1;align=center;verticalAlign=middle;resizable=0;points=[];autosize=1;strokeColor=none;fillColor=none;fontSize=9;fontColor=#FF0000;" vertex="1" parent="1">
          <mxGeometry x="337" y="136" width="30" height="20" as="geometry" />
        </mxCell>
        <mxCell id="VXULTdeV9HdvLmaTkZgw-50" value="(0,n)" style="text;html=1;align=center;verticalAlign=middle;resizable=0;points=[];autosize=1;strokeColor=none;fillColor=none;fontSize=9;fontColor=#FF0000;" vertex="1" parent="1">
          <mxGeometry x="474" y="122" width="40" height="20" as="geometry" />
        </mxCell>
        <mxCell id="VXULTdeV9HdvLmaTkZgw-51" value="(1,1)" style="text;html=1;align=center;verticalAlign=middle;resizable=0;points=[];autosize=1;strokeColor=none;fillColor=none;fontSize=9;fontColor=#FF0000;" vertex="1" parent="1">
          <mxGeometry x="500" y="160" width="40" height="20" as="geometry" />
        </mxCell>
        <mxCell id="VXULTdeV9HdvLmaTkZgw-52" value="(0,n)" style="text;html=1;align=center;verticalAlign=middle;resizable=0;points=[];autosize=1;strokeColor=none;fillColor=none;fontSize=9;fontColor=#FF0000;" vertex="1" parent="1">
          <mxGeometry x="416" y="300" width="40" height="20" as="geometry" />
        </mxCell>
        <mxCell id="VXULTdeV9HdvLmaTkZgw-53" value="1" style="text;html=1;align=center;verticalAlign=middle;resizable=0;points=[];autosize=1;strokeColor=none;fillColor=none;fontSize=9;fontColor=#FF0000;" vertex="1" parent="1">
          <mxGeometry x="401" y="238" width="30" height="20" as="geometry" />
        </mxCell>
        <mxCell id="VXULTdeV9HdvLmaTkZgw-55" value="1" style="text;html=1;align=center;verticalAlign=middle;resizable=0;points=[];autosize=1;strokeColor=none;fillColor=none;fontSize=9;fontColor=#FF0000;" vertex="1" parent="1">
          <mxGeometry x="464" y="190" width="30" height="20" as="geometry" />
        </mxCell>
        <mxCell id="VXULTdeV9HdvLmaTkZgw-56" value="(1,1)" style="text;html=1;align=center;verticalAlign=middle;resizable=0;points=[];autosize=1;strokeColor=none;fillColor=none;fontSize=9;fontColor=#FF0000;" vertex="1" parent="1">
          <mxGeometry x="574" y="160" width="40" height="20" as="geometry" />
        </mxCell>
        <mxCell id="VXULTdeV9HdvLmaTkZgw-57" value="(1,n)" style="text;html=1;align=center;verticalAlign=middle;resizable=0;points=[];autosize=1;strokeColor=none;fillColor=none;fontSize=9;fontColor=#FF0000;" vertex="1" parent="1">
          <mxGeometry x="677" y="313" width="40" height="20" as="geometry" />
        </mxCell>
        <mxCell id="VXULTdeV9HdvLmaTkZgw-58" value="(1,n)" style="text;html=1;align=center;verticalAlign=middle;resizable=0;points=[];autosize=1;strokeColor=none;fillColor=none;fontSize=9;fontColor=#FF0000;" vertex="1" parent="1">
          <mxGeometry x="275" y="330" width="40" height="20" as="geometry" />
        </mxCell>
        <mxCell id="VXULTdeV9HdvLmaTkZgw-59" value="M" style="text;html=1;align=center;verticalAlign=middle;resizable=0;points=[];autosize=1;strokeColor=none;fillColor=none;fontSize=9;fontColor=#FF0000;" vertex="1" parent="1">
          <mxGeometry x="260" y="370" width="30" height="20" as="geometry" />
        </mxCell>
        <mxCell id="VXULTdeV9HdvLmaTkZgw-60" value="(1,n)" style="text;html=1;align=center;verticalAlign=middle;resizable=0;points=[];autosize=1;strokeColor=none;fillColor=none;fontSize=9;fontColor=#FF0000;" vertex="1" parent="1">
          <mxGeometry x="174" y="290" width="40" height="20" as="geometry" />
        </mxCell>
        <mxCell id="VXULTdeV9HdvLmaTkZgw-61" value="N" style="text;html=1;align=center;verticalAlign=middle;resizable=0;points=[];autosize=1;strokeColor=none;fillColor=none;fontSize=9;fontColor=#FF0000;" vertex="1" parent="1">
          <mxGeometry x="199" y="320" width="30" height="20" as="geometry" />
        </mxCell>
        <mxCell id="VXULTdeV9HdvLmaTkZgw-62" value="1" style="text;html=1;align=center;verticalAlign=middle;resizable=0;points=[];autosize=1;strokeColor=none;fillColor=none;fontSize=9;fontColor=#FF0000;" vertex="1" parent="1">
          <mxGeometry x="680" y="269" width="30" height="20" as="geometry" />
        </mxCell>
        <mxCell id="VXULTdeV9HdvLmaTkZgw-63" value="N" style="text;html=1;align=center;verticalAlign=middle;resizable=0;points=[];autosize=1;strokeColor=none;fillColor=none;fontSize=9;fontColor=#FF0000;" vertex="1" parent="1">
          <mxGeometry x="680" y="180" width="30" height="20" as="geometry" />
        </mxCell>
        <mxCell id="VXULTdeV9HdvLmaTkZgw-64" value="N" style="text;html=1;align=center;verticalAlign=middle;resizable=0;points=[];autosize=1;strokeColor=none;fillColor=none;fontSize=9;fontColor=#FF0000;" vertex="1" parent="1">
          <mxGeometry x="584" y="330" width="30" height="20" as="geometry" />
        </mxCell>
        <mxCell id="VXULTdeV9HdvLmaTkZgw-65" value="(1,1)" style="text;html=1;align=center;verticalAlign=middle;resizable=0;points=[];autosize=1;strokeColor=none;fillColor=none;fontSize=9;fontColor=#FF0000;" vertex="1" parent="1">
          <mxGeometry x="602" y="354" width="40" height="20" as="geometry" />
        </mxCell>
        <mxCell id="VXULTdeV9HdvLmaTkZgw-66" value="(,n)" style="text;html=1;align=center;verticalAlign=middle;resizable=0;points=[];autosize=1;strokeColor=none;fillColor=none;fontSize=9;fontColor=#FF0000;" vertex="1" parent="1">
          <mxGeometry x="397" y="333" width="40" height="20" as="geometry" />
        </mxCell>
        <mxCell id="VXULTdeV9HdvLmaTkZgw-70" value="" style="shape=mxgraph.sysml.x;fillColor=#f8cecc;strokeColor=#b85450;" vertex="1" parent="1">
          <mxGeometry x="492" y="318.5" width="76" height="63" as="geometry" />
        </mxCell>
      </root>
    </mxGraphModel>
  </diagram>
</mxfile>
